<?xml version="1.0" encoding="UTF-8" standalone="no"?>
<svg xmlns="http://www.w3.org/2000/svg" xml:space="preserve" height="131.38" width="73.18" version="1.1" viewBox="0 0 73.18 131.375">
<path fill="#fff" d="m1.5 94.785 12.633-75.313s2.492-17.972 20.081-17.972c17.588 0 21.236 17.972 21.236 17.972l16.229 75.313h-70.179z"/>
<path id="bgColor00" d="m73.537 96.285h-73.81l12.926-77.061c0.021-0.151 2.881-19.224 21.561-19.224 18.598 0 22.667 18.982 22.706 19.174l16.617 77.111zm-70.265-3h66.55l-15.839-73.497c-0.143-0.7-3.646-16.788-19.769-16.788-16.043 0-18.499 16-18.596 16.681l-12.346 73.604z"/>
<circle cy="94.785" cx="36.59" r="35.089" fill="#fff"/>
<path id="bgColor01" d="m36.59 131.38c-20.175 0-36.589-16.414-36.589-36.59s16.414-36.589 36.589-36.589c20.176 0 36.59 16.414 36.59 36.589-0.001 20.175-16.415 36.59-36.59 36.59zm0-70.179c-18.521 0-33.589 15.068-33.589 33.589s15.067 33.59 33.589 33.59c18.521 0 33.59-15.068 33.59-33.59-0.001-18.526-15.069-33.594-33.59-33.594z"/>
</svg>
