<?xml version="1.0" encoding="UTF-8" standalone="no"?>
<svg xmlns:rdf="http://www.w3.org/1999/02/22-rdf-syntax-ns#" xmlns="http://www.w3.org/2000/svg" xml:space="preserve" height="41.859px" viewBox="0 0 42.63 41.859" width="42.63px" version="1.1" enable-background="new 0 0 42.63 41.859" y="0px" x="0px" xmlns:cc="http://creativecommons.org/ns#" xmlns:dc="http://purl.org/dc/elements/1.1/">
<path id="bgColor00" d="m5.392 29.302l-4.506 4.508c-1.182 1.289-1.182 2.469 0 3.758l3.434 3.324c1.18 1.289 2.467 1.289 3.648 0l11.053-11.051c0.968-0.969 1.182-1.934 0.645-2.898 2.469 1.715 5.152 2.469 8.264 2.574 4.078-0.105 7.512-1.5 10.41-4.398 2.896-2.898 4.291-6.332 4.291-10.41s-1.395-7.512-4.291-10.41c-2.9-2.899-6.333-4.294-10.411-4.294-4.078-0.105-7.514 1.395-10.408 4.188l-0.109 0.105c-2.791 2.898-4.293 6.332-4.293 10.41 0 2.898 0.754 5.473 2.148 7.727-1.074-0.965-2.148-0.859-3.328 0.32l-6.547 6.547zm-1.288 6.762c0-0.535 0.215-0.859 0.537-1.18l7.834-7.836c0.217-0.32 0.643-0.43 1.074-0.43 0.428 0 0.857 0.109 1.07 0.43 0.324 0.324 0.537 0.645 0.537 1.18 0 0.43-0.213 0.754-0.537 1.074l-7.725 7.836c-0.43 0.32-0.75 0.43-1.18 0.43s-0.859-0.109-1.074-0.43c-0.321-0.324-0.536-0.644-0.536-1.074zm15.884-29.297c2.146-2.145 4.829-3.219 7.94-3.219 3.111-0.109 5.689 0.965 7.834 3.219 2.254 2.145 3.326 4.828 3.326 7.941s-1.072 5.688-3.326 7.941c-2.145 2.148-4.828 3.324-7.834 3.324-3.111 0-5.795-1.176-7.94-3.324-2.253-2.254-3.327-4.828-3.327-7.941s1.074-5.687 3.327-7.941z"/>
</svg>
