<?xml version="1.0" encoding="UTF-8"?>
<svg width="20px" height="20px" viewBox="0 0 20 20" version="1.1" xmlns="http://www.w3.org/2000/svg" xmlns:xlink="http://www.w3.org/1999/xlink">
    <!-- Generator: Sketch 50.2 (55047) - http://www.bohemiancoding.com/sketch -->
    <title>Icon/20x20/icn_password</title>
    <desc>Created with Sketch.</desc>
    <defs>
        <path d="M19.7238095,15.5142857 L13.9333333,9.73333333 C14.9175205,6.79975793 13.7538161,3.5745834 11.1232547,1.94527807 C8.49269336,0.315972737 5.08681254,0.710858022 2.89883528,2.89883528 C0.710858022,5.08681254 0.315972737,8.49269336 1.94527807,11.1232547 C3.5745834,13.7538161 6.79975793,14.9175205 9.73333333,13.9333333 L10.752381,14.952381 C10.9305442,15.1341482 11.1740515,15.2370386 11.4285714,15.2380952 L12.3809524,15.2380952 L12.3809524,16.1904762 C12.3809524,16.7164617 12.8073479,17.1428571 13.3333333,17.1428571 L14.2857143,17.1428571 L14.2857143,18.0952381 C14.2842507,18.3483838 14.3836319,18.5916964 14.5619048,18.7714286 L15.5142857,19.7238095 C15.6940179,19.9020824 15.9373305,20.0014636 16.1904762,20 L19.047619,20 C19.5736045,20 20,19.5736045 20,19.047619 L20,16.1904762 C20.0014636,15.9373305 19.9020824,15.6940179 19.7238095,15.5142857 Z M18.0952381,18.0952381 L16.5809524,18.0952381 L16.1904762,17.7047619 L16.1904762,16.1904762 C16.1904762,15.6644907 15.7640807,15.2380952 15.2380952,15.2380952 L14.2857143,15.2380952 L14.2857143,14.2857143 C14.2857143,13.7597288 13.8593188,13.3333333 13.3333333,13.3333333 L11.8190476,13.3333333 L10.6380952,12.152381 C10.5797704,12.1036592 10.5158235,12.0620937 10.447619,12.0285714 C10.4083506,12.0000573 10.3669602,11.9745863 10.3238095,11.952381 C10.2636288,11.9466378 10.2030379,11.9466378 10.1428571,11.952381 C10.0826764,11.9466378 10.0220855,11.9466378 9.96190476,11.952381 L9.81904762,11.952381 C9.74441178,11.9595757 9.67088674,11.9755594 9.6,12 C7.50380962,12.9462544 5.03086286,12.2591156 3.72332278,10.3670928 C2.41578271,8.47506995 2.64734198,5.91889984 4.2735971,4.29264472 C5.89985222,2.6663896 8.45602233,2.43483033 10.3480452,3.7423704 C12.240068,5.04991047 12.9272067,7.52285724 11.9809524,9.61904762 C11.9565118,9.68993436 11.9405281,9.7634594 11.9333333,9.83809524 C11.9297569,9.88564713 11.9297569,9.93340049 11.9333333,9.98095238 C11.9275902,10.0411331 11.9275902,10.101724 11.9333333,10.1619048 C11.9275902,10.2220855 11.9275902,10.2826764 11.9333333,10.3428571 C11.9555387,10.3860079 11.9810097,10.4273983 12.0095238,10.4666667 C12.0430461,10.5348711 12.0846116,10.598818 12.1333333,10.6571429 L18.0952381,16.5809524 L18.0952381,18.0952381 Z M7.61904762,6.19047619 C7.61904762,6.9794544 6.9794544,7.61904762 6.19047619,7.61904762 C5.40149798,7.61904762 4.76190476,6.9794544 4.76190476,6.19047619 C4.76190476,5.40149798 5.40149798,4.76190476 6.19047619,4.76190476 C6.9794544,4.76190476 7.61904762,5.40149798 7.61904762,6.19047619 Z" id="path-1"></path>
    </defs>
    <g id="Icon/20x20/icn_password" stroke="none" stroke-width="1" fill="none" fill-rule="evenodd">
        <mask id="mask-2" fill="white">
            <use xlink:href="#path-1"></use>
        </mask>
        <g id="icn_password" fill-rule="nonzero"></g>
        <g id="Color/Fill/Mid_Dark" mask="url(#mask-2)" fill="none">
            <rect id="Rectangle" x="0" y="0" width="20" height="20"></rect>
        </g>
    </g>
</svg>
