<?xml version="1.0" encoding="UTF-8"?>
<svg width="20px" height="20px" viewBox="0 0 20 20" version="1.1" xmlns="http://www.w3.org/2000/svg" xmlns:xlink="http://www.w3.org/1999/xlink">
    <!-- Generator: Sketch 50.2 (55047) - http://www.bohemiancoding.com/sketch -->
    <title>Icon/20x20/icn_en-pump-on</title>
    <desc>Created with Sketch.</desc>
    <defs>
        <path d="M11,1 L1,1 C0.44771525,1 6.76353751e-17,1.44771525 0,2 L0,7 C6.76353751e-17,7.55228475 0.44771525,8 1,8 L2.24,8 C1.92636255,9.31488925 1.92636255,10.6851108 2.24,12 L1,12 C0.44771525,12 6.76353751e-17,12.4477153 0,13 L0,18 C6.76353751e-17,18.5522847 0.44771525,19 1,19 L11,19 C15.9705627,19 20,14.9705627 20,10 C20,5.02943725 15.9705627,1 11,1 Z M2,3 L5.39,3 C4.387022,3.81664823 3.57184523,4.83988266 3,6 L2,6 L2,3 Z M2,17 L2,14 L3,14 C3.5805554,15.1630272 4.4061527,16.1864949 5.42,17 L2,17 Z M15.95,14.95 C14.2888626,16.6106386 11.9055757,17.327458 9.60397778,16.8586885 C7.30237983,16.389919 5.3893058,14.798054 4.51,12.62 C3.82889823,10.9362714 3.82889823,9.05372863 4.51,7.37 C5.57225468,4.73685659 8.11987058,3.00621575 10.9591543,2.98897466 C13.798438,2.97173357 16.3668833,4.67130797 17.4610371,7.29135694 C18.555191,9.9114059 17.9582844,12.9328571 15.95,14.94 L15.95,14.95 Z M16,10 C16,12.7614237 13.7614237,15 11,15 C10.4477153,15 10,14.5522847 10,14 C10,13.4477153 10.4477153,13 11,13 C12.6568542,13 14,11.6568542 14,10 C14,8.34314575 12.6568542,7 11,7 C10.4477153,7 10,6.55228475 10,6 C10,5.44771525 10.4477153,5 11,5 C13.7614237,5 16,7.23857625 16,10 Z M12,11 L10,11 L10,9 L12,9 L12,11 Z" id="path-1"></path>
    </defs>
    <g id="Icon/20x20/icn_en-pump-on" stroke="none" stroke-width="1" fill="none" fill-rule="evenodd">
        <mask id="mask-2" fill="white">
            <use xlink:href="#path-1"></use>
        </mask>
        <g id="icn_en-pump-on" fill-rule="nonzero"></g>
        <g id="Color/Fill/Mid_Dark" mask="url(#mask-2)" fill="none">
            <rect id="Rectangle" x="0" y="0" width="20" height="20"></rect>
        </g>
    </g>
</svg>
