<?xml version="1.0" encoding="UTF-8"?>
<svg width="20px" height="20px" viewBox="0 0 20 20" version="1.1" xmlns="http://www.w3.org/2000/svg" xmlns:xlink="http://www.w3.org/1999/xlink">
    <!-- Generator: Sketch 50.2 (55047) - http://www.bohemiancoding.com/sketch -->
    <title>Icon/20x20/icn_doc</title>
    <desc>Created with Sketch.</desc>
    <defs>
        <path d="M4,11.4285714 L1,11.4285714 C0.429546308,11.4735404 -0.00720221671,11.9310865 -3.23078695e-16,12.4761905 L-3.23078695e-16,18.1904762 C0.00457511712,18.4333546 0.114817362,18.6635239 0.304404433,18.8260271 C0.493991505,18.9885303 0.745906419,19.0687814 1,19.047619 L4,19.047619 C4.52023735,19.0709957 5.02793636,18.8910315 5.40552772,18.5494012 C5.78311908,18.2077709 5.99785194,17.7341063 6,17.2380952 L6,13.4285714 C6.00641931,12.3581996 5.122867,11.4746473 4,11.4285714 Z M4,16.2857143 C3.99542488,16.5285927 3.88518264,16.7587619 3.69559557,16.9212651 C3.5060085,17.0837684 3.25409358,17.1640195 3,17.1428571 L2,17.1428571 L2,13.3333333 L3,13.3333333 C3.57045369,13.3783023 4.00720222,13.8358484 4,14.3809524 L4,16.2857143 Z M20,12.3809524 C20,12.9069379 19.5522847,13.3333333 19,13.3333333 L18,13.3333333 C17.4071061,13.3255842 16.8411668,13.5687888 16.4549623,13.9972919 C16.0687578,14.425795 15.9021075,14.9954161 16,15.552381 C16.1962311,16.5049951 17.0914256,17.179775 18.11,17.1428571 L19,17.1428571 C19.5522847,17.1428571 20,17.5692526 20,18.0952381 C20,18.6212236 19.5522847,19.047619 19,19.047619 L18.17,19.047619 C16.0607491,19.0874065 14.2607341,17.6033243 14,15.6095238 C13.8896131,14.5365273 14.2617853,13.4692308 15.0242268,12.6722979 C15.7866683,11.875365 16.8679717,11.4234335 18,11.4285714 L19,11.4285714 C19.5522847,11.4285714 20,11.8549669 20,12.3809524 Z M11,11.4285714 L9,11.4285714 C7.8954305,11.4285714 7,12.2813624 7,13.3333333 L7,17.1428571 C7,18.1948281 7.8954305,19.047619 9,19.047619 L11,19.047619 C12.1045695,19.047619 13,18.1948281 13,17.1428571 L13,13.3333333 C13,12.2813624 12.1045695,11.4285714 11,11.4285714 Z M11,16.1904762 C11,16.7164617 10.5522847,17.1428571 10,17.1428571 C9.44771525,17.1428571 9,16.7164617 9,16.1904762 L9,14.2857143 C9,13.7597288 9.44771525,13.3333333 10,13.3333333 C10.5522847,13.3333333 11,13.7597288 11,14.2857143 L11,16.1904762 Z M20,6.51428571 L20,8.66666667 C20,9.19265214 19.5522847,9.61904762 19,9.61904762 C18.4477153,9.61904762 18,9.19265214 18,8.66666667 L18,7.61904762 L14,7.61904762 C13.4797626,7.64242429 12.9720636,7.46246007 12.5944723,7.12082979 C12.2168809,6.77919952 12.0021481,6.3055349 12,5.80952381 L12,1.9047619 L3,1.9047619 C2.42954631,1.9497309 1.99279778,2.40727697 2,2.95238095 L2,8.66666667 C2,9.19265214 1.55228475,9.61904762 1,9.61904762 C0.44771525,9.61904762 2.992398e-17,9.19265214 -3.77031305e-17,8.66666667 L-3.77031305e-17,2 C-0.00641930925,0.929628167 0.877132999,0.0460758594 2,0 L13.55,0 C13.8315453,0.0172111405 14.0942707,0.140604682 14.28,0.342857143 L19.73,5.85714286 C19.905032,6.03518337 20.0016723,6.27039268 20,6.51428571 Z" id="path-1" fill="#888F9B"></path>
    </defs>
    <g id="Icon/20x20/icn_doc" stroke="none" stroke-width="1" fill="none" fill-rule="evenodd">
        <mask id="mask-2" fill="white">
            <use xlink:href="#path-1"></use>
        </mask>
        <g id="icn_doc" fill-rule="nonzero"></g>
        <g id="Color/Fill/Mid_Dark" mask="url(#mask-2)" fill="none">
            <rect id="Rectangle" x="0" y="0" width="0" height="0"></rect>
        </g>
    </g>
</svg>
