<?xml version="1.0" encoding="UTF-8"?>
<svg width="40px" height="40px" viewBox="0 0 40 40" version="1.1" xmlns="http://www.w3.org/2000/svg" xmlns:xlink="http://www.w3.org/1999/xlink">
    <!-- Generator: Sketch 48.2 (47327) - http://www.bohemiancoding.com/sketch -->
    <title>icn_machine_state_automatic</title>
    <desc>Created with Sketch.</desc>
    <defs></defs>
    <g id="A.1.0-Dashboard---One-Card" stroke="none" stroke-width="1" fill="4CD964S" fill-rule="evenodd" transform="translate(-249.000000, -25.000000)">
        <g id="//-Top-bar">
            <g id="All_ok_bar" transform="translate(249.000000, 10.000000)">
                <g id="Icon/40x40/machine_state/automatic" transform="translate(0.000000, 15.000000)">
                    <g id="icn_all_ok">
                        <circle id="Oval-2" fill="#4CD964" cx="20" cy="20" r="20"></circle>
                        <path d="M6,20 L8.85429769,20 C8.85429769,13.92463 13.4912066,9 19.2116236,9 C22.3158048,9 25.1012113,10.4503306 27,12.747914" id="Stroke-1499" stroke="#FFFFFF" stroke-width="2.0907441" stroke-linecap="round" stroke-linejoin="round"></path>
                        <path d="M33,20 L30.1457023,20 C30.1457023,26.07537 25.5083857,31 19.7883764,31 C16.6841952,31 13.8987887,29.5496694 12,27.252086" id="Stroke-1500" stroke="#FFFFFF" stroke-width="2.0907441" stroke-linecap="round" stroke-linejoin="round"></path>
                        <path d="M28.4472136,12.8944272 L29.6381966,15.2763932 C29.7616912,15.5233825 29.6615791,15.823719 29.4145898,15.9472136 C29.3451621,15.9819275 29.2686056,16 29.190983,16 L26.809017,16 C26.5328746,16 26.309017,15.7761424 26.309017,15.5 C26.309017,15.4223775 26.3270895,15.3458209 26.3618034,15.2763932 L27.5527864,12.8944272 C27.676281,12.6474379 27.9766175,12.5473258 28.2236068,12.6708204 C28.3203705,12.7192022 28.3988317,12.7976635 28.4472136,12.8944272 Z" id="Triangle-2" fill="#FFFFFF" transform="translate(28.000000, 14.000000) rotate(-225.000000) translate(-28.000000, -14.000000) "></path>
                        <path d="M11.2756407,25.7228543 L12.4666237,28.1048203 C12.5901184,28.3518096 12.4900062,28.6521461 12.2430169,28.7756407 C12.1735892,28.8103546 12.0970327,28.8284271 12.0194101,28.8284271 L9.63744412,28.8284271 C9.36130174,28.8284271 9.13744412,28.6045695 9.13744412,28.3284271 C9.13744412,28.2508046 9.15551666,28.174248 9.19023052,28.1048203 L10.3812135,25.7228543 C10.5047082,25.4758651 10.8050447,25.3757529 11.0520339,25.4992475 C11.1487976,25.5476294 11.2272589,25.6260906 11.2756407,25.7228543 Z" id="Triangle-2" fill="#FFFFFF" transform="translate(10.828427, 26.828427) rotate(207.000000) translate(-10.828427, -26.828427) "></path>
                        <path d="M24,20 C24,22.2093333 22.2093333,24 20,24 C17.7906667,24 16,22.2093333 16,20 C16,17.7911111 17.7906667,16 20,16 C22.2093333,16 24,17.7911111 24,20 Z" id="Stroke-1501" stroke="#FFFFFF" stroke-width="2.0907441" stroke-linecap="round" stroke-linejoin="round"></path>
                    </g>
                </g>
            </g>
        </g>
    </g>
</svg>
