<?xml version="1.0" encoding="UTF-8"?>
<svg width="20px" height="20px" viewBox="0 0 20 20" version="1.1" xmlns="http://www.w3.org/2000/svg" xmlns:xlink="http://www.w3.org/1999/xlink">
    <!-- Generator: Sketch 50.2 (55047) - http://www.bohemiancoding.com/sketch -->
    <title>Icon/20x20/icn_auto-apprendimento</title>
    <desc>Created with Sketch.</desc>
    <defs>
        <path d="M20,10 C20.0015353,12.9582675 18.4950222,15.7322503 15.9615518,17.4361026 C13.4280815,19.1399549 10.1845191,19.560573 7.26666667,18.5636364 C6.80558857,18.3739094 6.5780138,17.8750862 6.74656777,17.4236269 C6.91512174,16.9721675 7.42190184,16.7231599 7.9047619,16.8545455 C11.2666919,18.0170092 15.0231991,16.7914191 16.9363868,13.9079066 C18.8495745,11.024394 18.4046477,7.25884606 15.8666667,4.85454545 C15.4974061,4.49996595 15.4974061,3.92730678 15.8666667,3.57272727 L17.6,1.91818182 C17.9778669,1.60929382 18.5411373,1.63006157 18.8929174,1.96585162 C19.2446974,2.30164166 19.2664541,2.83930884 18.9428571,3.2 L17.847619,4.24545455 C19.2391529,5.86913406 19.9995921,7.90222285 20,10 Z M2.85714286,10 C2.85534013,7.63411123 4.05927737,5.41524403 6.08469867,4.05158552 C8.11011997,2.687927 10.7038638,2.34992361 13.0380952,3.14545455 C13.5276198,3.29966825 14.0568315,3.05410246 14.2321699,2.5913778 C14.4075083,2.12865314 14.1653202,1.616753 13.6857143,1.43636364 C9.65595882,0.0578723357 5.15782613,1.41516201 2.69034808,4.75416194 C0.222870044,8.09316187 0.392404038,12.5933471 3.1047619,15.7545455 L2.00952381,16.8 C1.68592686,17.1606912 1.70768355,17.6983583 2.0594636,18.0341484 C2.41124365,18.3699384 2.97451402,18.3907062 3.35238095,18.0818182 L5.08571429,16.4272727 C5.45497485,16.0726932 5.45497485,15.500034 5.08571429,15.1454545 C3.65722994,13.7803847 2.85555341,11.9294276 2.85714286,10 Z M14.2857143,10 C14.2856556,10.3209703 14.1082852,10.6181233 13.8190476,10.7818182 L9.05714286,13.5090909 C8.76279539,13.6756777 8.39744682,13.6787234 8.1000962,13.5170692 C7.80274558,13.355415 7.6191073,13.0539135 7.61904762,12.7272727 L7.61904762,7.27272727 C7.6191073,6.94608649 7.80274558,6.64458498 8.1000962,6.48293079 C8.39744682,6.3212766 8.76279539,6.32432229 9.05714286,6.49090909 L13.8190476,9.21818182 C14.1082852,9.38187665 14.2856556,9.67902974 14.2857143,10 Z M11.4857143,10 L9.52380952,8.88181818 L9.52380952,11.1272727 L11.4857143,10 Z" id="path-1" fill="#FF9F00"></path>
    </defs>
    <g id="Icon/20x20/icn_auto-apprendimento" stroke="none" stroke-width="1" fill="none" fill-rule="evenodd">
        <mask id="mask-2" fill="white">
            <use xlink:href="#path-1"></use>
        </mask>
        <g id="icn_auto-apprendimento" fill-rule="nonzero"></g>
        <g id="Color/Fill/Mid_Dark" mask="url(#mask-2)" fill="#NONE">
            <rect id="Rectangle" x="0" y="0" width="0" height="0"></rect>
        </g>
    </g>
</svg>
