<?xml version="1.0" encoding="UTF-8"?>
<svg width="20px" height="20px" viewBox="0 0 20 20" version="1.1" xmlns="http://www.w3.org/2000/svg" xmlns:xlink="http://www.w3.org/1999/xlink">
    <!-- Generator: Sketch 50.2 (55047) - http://www.bohemiancoding.com/sketch -->
    <title>Icon/20x20/icn_new_user</title>
    <desc>Created with Sketch.</desc>
    <defs>
        <path d="M10,11.4285714 C12.668938,11.4331637 14.9576025,9.61536535 15.4321561,7.11401843 C15.9067097,4.6126715 14.4306936,2.14704336 11.9288248,1.26183838 C9.42695598,0.37663341 6.61865197,1.32639408 5.26330194,3.51609982 C3.90795191,5.70580555 4.3952895,8.50580206 6.42,10.1619048 C2.55540638,11.5730763 0.00298699519,15.1057974 1.77635684e-15,19.047619 C1.84399221e-15,19.5736045 0.44771525,20 1,20 L9,20 C9.55228475,20 10,19.5736045 10,19.047619 C10,18.5216336 9.55228475,18.0952381 9,18.0952381 L2.07,18.0952381 C2.57360572,14.288324 5.97114267,11.4320508 10,11.4285714 Z M6.5,6.19047619 C6.5,4.34952702 8.06700338,2.85714286 10,2.85714286 C11.9329966,2.85714286 13.5,4.34952702 13.5,6.19047619 C13.5,8.03142536 11.9329966,9.52380952 10,9.52380952 C8.06700338,9.52380952 6.5,8.03142536 6.5,6.19047619 Z M20,16.1904762 C20,16.7164617 19.5522847,17.1428571 19,17.1428571 L17,17.1428571 L17,19.047619 C17,19.5736045 16.5522847,20 16,20 C15.4477153,20 15,19.5736045 15,19.047619 L15,17.1428571 L13,17.1428571 C12.4477153,17.1428571 12,16.7164617 12,16.1904762 C12,15.6644907 12.4477153,15.2380952 13,15.2380952 L15,15.2380952 L15,13.3333333 C15,12.8073479 15.4477153,12.3809524 16,12.3809524 C16.5522847,12.3809524 17,12.8073479 17,13.3333333 L17,15.2380952 L19,15.2380952 C19.5522847,15.2380952 20,15.6644907 20,16.1904762 Z" id="path-1" fill="#888F9B"></path>
    </defs>
    <g id="Icon/20x20/icn_new_user" stroke="none" stroke-width="1" fill="none" fill-rule="evenodd">
        <mask id="mask-2" fill="white">
            <use xlink:href="#path-1"></use>
        </mask>
        <g id="icn_new_user" fill-rule="nonzero"></g>
        <g id="Color/Fill/Mid_Dark" mask="url(#mask-2)" fill="none">
            <rect id="Rectangle" x="0" y="0" width="0" height="0"></rect>
        </g>
    </g>
</svg>
