<?xml version="1.0" encoding="UTF-8"?>
<svg width="20px" height="20px" viewBox="0 0 20 20" version="1.1" xmlns="http://www.w3.org/2000/svg" xmlns:xlink="http://www.w3.org/1999/xlink">
    <!-- Generator: Sketch 50.2 (55047) - http://www.bohemiancoding.com/sketch -->
    <title>Icon/20x20/icn_hand_touch</title>
    <desc>Created with Sketch.</desc>
    <defs>
        <path d="M14,6 C13.65869,6.00089119 13.3201979,6.06181977 13,6.18 C12.3557227,5.93565388 11.6442773,5.93565388 11,6.18 C10.6798021,6.06181977 10.34131,6.00089119 10,6 C9.66076905,6.00567863 9.32406767,6.05955085 9,6.16 L9,3 C9,1.34314575 7.65685425,1.01453063e-16 6,0 C4.34314575,-1.01453063e-16 3,1.34314575 3,3 L3,13 C3.00000006,16.8659932 6.13400679,19.9999999 10,19.9999999 C13.8659932,19.9999999 16.9999999,16.8659932 17,13 L17,9 C17,7.34314575 15.6568542,6 14,6 Z M15,13 C15,15.7614237 12.7614237,18 10,18 C7.23857625,18 5,15.7614237 5,13 L5,3 C5,2.44771525 5.44771525,2 6,2 C6.55228475,2 7,2.44771525 7,3 L7,8 C6.99768265,8.45888043 7.30798096,8.86044687 7.752604,8.97396765 C8.19722705,9.08748843 8.66205193,8.88382578 8.88,8.48 C8.98074887,8.33799203 9.11934003,8.2271191 9.28,8.16 C9.50560685,8.05523081 9.7512539,8.00064257 10,8 C10.1760862,8.00182874 10.3485672,8.05012341 10.5,8.14 C10.8094011,8.31863279 11.1905989,8.31863279 11.5,8.14 C11.8056815,7.9479866 12.1943185,7.9479866 12.5,8.14 C12.8094011,8.31863279 13.1905989,8.31863279 13.5,8.14 C13.6514328,8.05012341 13.8239138,8.00182874 14,8 C14.5522847,8 15,8.44771525 15,9 L15,13 Z" id="path-1" fill="#888F9B"></path>
    </defs>
    <g id="Icon/20x20/icn_hand_touch" stroke="none" stroke-width="1" fill="none" fill-rule="evenodd">
        <mask id="mask-2" fill="white">
            <use xlink:href="#path-1"></use>
        </mask>
        <g id="icn_hand_touch" fill-rule="nonzero"></g>
        <g id="Color/Fill/Mid_Dark" mask="url(#mask-2)" fill="none">
            <rect id="Rectangle" x="0" y="0" width="0" height="0"></rect>
        </g>
    </g>
</svg>
