<?xml version="1.0" encoding="UTF-8"?>
<svg width="20px" height="20px" viewBox="0 0 20 20" version="1.1" xmlns="http://www.w3.org/2000/svg" xmlns:xlink="http://www.w3.org/1999/xlink">
    <!-- Generator: Sketch 50.2 (55047) - http://www.bohemiancoding.com/sketch -->
    <title>Icon/20x20/icn_visualizzazione_IO</title>
    <desc>Created with Sketch.</desc>
    <defs>
        <path d="M18.71,1.29 C18.5212812,1.10281349 18.265803,0.998463241 18,1 L2,1 C1.44771525,1 1,1.44771525 1,2 L1,18 C1,18.5522847 1.44771525,19 2,19 L18,19 C18.5522847,19 19,18.5522847 19,18 L19,2 C19.0015368,1.73419702 18.8971865,1.47871883 18.71,1.29 Z M3,8 L17,8 L17,12 L3,12 L3,8 Z M17,3 L17,7 L3,7 L3,3 L17,3 Z M3,13 L17,13 L17,17 L3,17 L3,13 Z M14,5 C14,4.44771525 14.4477153,4 15,4 C15.5522847,4 16,4.44771525 16,5 C16,5.55228475 15.5522847,6 15,6 C14.4477153,6 14,5.55228475 14,5 Z M16,10 C16,10.5522847 15.5522847,11 15,11 C14.4477153,11 14,10.5522847 14,10 C14,9.44771525 14.4477153,9 15,9 C15.5522847,9 16,9.44771525 16,10 Z M16,15 C16,15.5522847 15.5522847,16 15,16 C14.4477153,16 14,15.5522847 14,15 C14,14.4477153 14.4477153,14 15,14 C15.5522847,14 16,14.4477153 16,15 Z M5,6 L4,6 L4,4 L5,4 L5,6 Z M7,6 L6,6 L6,4 L7,4 L7,6 Z M9,6 L8,6 L8,4 L9,4 L9,6 Z M4,9 L5,9 L5,11 L4,11 L4,9 Z M6,9 L7,9 L7,11 L6,11 L6,9 Z M8,9 L9,9 L9,11 L8,11 L8,9 Z M4,14 L5,14 L5,16 L4,16 L4,14 Z M6,14 L7,14 L7,16 L6,16 L6,14 Z M8,14 L9,14 L9,16 L8,16 L8,14 Z" id="path-1" fill="#888F9B" ></path>
    </defs>
    <g id="Icon/20x20/icn_visualizzazione_IO" stroke="none" stroke-width="1" fill="none" fill-rule="evenodd">
        <mask id="mask-2" fill="white">
            <use xlink:href="#path-1"></use>
        </mask>
        <g id="icn_visualizzazione_IO" fill-rule="nonzero"></g>
        <g id="Color/Fill/Mid_Dark" mask="url(#mask-2)" fill="none">
            <rect id="Rectangle" x="0" y="0" width="0" height="0"></rect>
        </g>
    </g>
</svg>
