<?xml version="1.0" encoding="UTF-8"?>
<svg width="44px" height="44px" viewBox="0 0 44 44" version="1.1" xmlns="http://www.w3.org/2000/svg" xmlns:xlink="http://www.w3.org/1999/xlink">
    <!-- Generator: Sketch 48.2 (47327) - http://www.bohemiancoding.com/sketch -->
    <title>icn_action_Maintenance</title>
    <desc>Created with Sketch.</desc>
    <defs>
        <linearGradient x1="50%" y1="0%" x2="50%" y2="100%" id="linearGradient-1">
            <stop stop-color="#888F9B" offset="0%"></stop>
            <stop stop-color="#888F9B" offset="100%"></stop>
        </linearGradient>
    </defs>
    <g id="B.1.1-Alarmi" stroke="none" stroke-width="1" fill="none" fill-rule="evenodd" transform="translate(-598.000000, -692.000000)">
        <g id="---actions" transform="translate(441.000000, 692.000000)">
            <g id="Stacked-Group">
                <g id="Action/component/bottom_bar" transform="translate(126.000000, 0.000000)">
                    <g id="Icon/44x44/Action/Clock" transform="translate(31.000000, 0.000000)">
                        <circle id="Oval" fill="url(#linearGradient-1)" cx="22" cy="22" r="22"></circle>
                        <path d="M27.1376971,22.8620534 C26.8776986,22.6017216 26.4550344,22.6017216 26.195036,22.8620534 L25.6663724,23.390717 L24.6090452,22.3333898 L26.9423649,20.0000701 L27.9996921,20.0000701 C30.6166768,20.0000701 31.9996687,18.3864129 31.9996687,15.3334308 C31.9996687,15.1024321 31.8800027,14.8877667 31.6833372,14.7664341 C31.487005,14.6447681 31.2413398,14.6337682 31.0346743,14.7371009 L28.7980208,15.8554277 L28.1443579,15.2017649 L29.2626847,12.9651113 C29.3660174,12.7584458 29.3550175,12.5131139 29.2333515,12.3164484 C29.1120189,12.1197829 28.8973535,12.0001169 28.6663549,12.0001169 C25.6133727,12.0001169 23.9997155,13.3831088 23.9997155,16.0000935 L23.9997155,17.0570874 L21.6663958,19.390407 L17.9424175,15.6667621 L18.4710811,15.1380986 C18.6164136,14.9927661 18.6864132,14.7891006 18.6614133,14.5854351 C18.6364135,14.3817697 18.5187475,14.2007707 18.3427485,14.0951047 L15.0094347,12.0951164 C14.7474362,11.9374506 14.4114382,11.979117 14.1951061,12.1954491 L13.5284433,12.8621119 C13.3121113,13.0784439 13.2707782,13.4141086 13.4281106,13.6764404 L15.4280989,17.0097543 C15.533765,17.1857533 15.7144306,17.3034192 15.9184294,17.3284191 C15.9454292,17.3317524 15.9727624,17.3334191 15.9997622,17.3334191 C16.1754279,17.3334191 16.3454269,17.2640861 16.4710928,17.1380869 L16.9997564,16.6094233 L20.7237346,20.3334015 L12.8617806,28.1953556 C12.7884477,28.2683551 12.733448,28.357688 12.7007815,28.4560207 L12.0341187,30.456009 C11.9544525,30.6956743 12.0167855,30.9596727 12.1951178,31.138005 L12.8617806,31.8046678 C12.9887798,31.9316671 13.1591122,32 13.3331112,32 C13.4034441,32 13.474777,31.9886667 13.5437766,31.9656669 L15.5437649,31.2990041 C15.6420977,31.2663376 15.7310971,31.2110046 15.80443,31.138005 L23.6663841,23.276051 L24.7237112,24.3333781 L24.1950477,24.8620417 C23.9347158,25.1223735 23.9347158,25.5443711 24.1950477,25.8047029 L30.1950126,31.8046678 C30.3250118,31.9350004 30.4956775,32 30.6663432,32 C30.8370088,32 31.0076745,31.9350004 31.1376737,31.8046678 L33.137662,29.8046795 C33.3979939,29.5443477 33.3979939,29.1223502 33.137662,28.8620183 L27.1376971,22.8620534 Z M16.1320948,15.5914293 L14.9434351,13.6104408 L16.9244235,14.7991006 L16.1320948,15.5914293 Z M14.9727682,30.0840112 L13.5131101,30.570675 L13.4291106,30.4866755 L13.9157744,29.0270174 L25.1377088,17.8047496 C25.2627081,17.6797504 25.333041,17.5100847 25.333041,17.3334191 L25.333041,16.0000935 C25.333041,14.8717668 25.6230393,13.7217735 27.5476947,13.413442 L26.7366995,15.0354325 C26.6083669,15.2920977 26.6586999,15.6020959 26.8616987,15.8050947 L28.1950243,17.1384202 C28.3980231,17.341419 28.7083546,17.3917521 28.9646864,17.2634195 L30.586677,16.4524242 C30.2780121,18.3767463 29.1280188,18.6667446 27.9996921,18.6667446 L26.6663665,18.6667446 C26.4897009,18.6667446 26.3200352,18.7370775 26.195036,18.8620768 L14.9727682,30.0840112 Z M30.6663432,30.3903427 L25.6093727,25.3333723 L26.6663665,24.2763785 L31.723337,29.3333489 L30.6663432,30.3903427 Z" id="Shape" stroke="#FFFFFF" stroke-width="0.5" fill="#FFFFFF" fill-rule="nonzero"></path>
                    </g>
                </g>
            </g>
        </g>
    </g>
</svg>
