<?xml version="1.0" encoding="UTF-8"?>
<svg width="44px" height="44px" viewBox="0 0 44 44" version="1.1" xmlns="http://www.w3.org/2000/svg" xmlns:xlink="http://www.w3.org/1999/xlink">
    <!-- Generator: Sketch 48.2 (47327) - http://www.bohemiancoding.com/sketch -->
    <title>icn_action_Allarm_clock</title>
    <desc>Created with Sketch.</desc>
    <defs>
        <linearGradient x1="50%" y1="0%" x2="50%" y2="100%" id="linearGradient-1">
            <stop stop-color="#888F9B" offset="0%"></stop>
            <stop stop-color="#888F9B" offset="100%"></stop>
        </linearGradient>
    </defs>
    <g id="B.1.1-Alarmi" stroke="none" stroke-width="1" fill="none" fill-rule="evenodd" transform="translate(-850.000000, -692.000000)">
        <g id="---actions" transform="translate(441.000000, 692.000000)">
            <g id="Stacked-Group">
                <g id="Action/component/bottom_bar" transform="translate(378.000000, 0.000000)">
                    <g id="Icon/44x44/Action/Clock" transform="translate(31.000000, 0.000000)">
                        <circle id="Oval" fill="url(#linearGradient-1)" cx="22" cy="22" r="22"></circle>
                        <path d="M22.7000003,27.1500003 L12.9000001,27.1500003 L12.9000001,19.8000002 C12.9000001,16.5341501 15.3500001,14.9000001 17.7987752,14.9000001 L17.8012252,14.9000001 C20.2500002,14.9000001 22.7000003,16.5341501 22.7000003,19.8000002 L22.7000003,27.1500003 Z M19.0250002,30.8250004 C19.0250002,31.5012004 18.4762002,32.0500004 17.8000002,32.0500004 C17.1238002,32.0500004 16.5750002,31.5012004 16.5750002,30.8250004 L16.5750002,29.6000004 L19.0250002,29.6000004 L19.0250002,30.8250004 Z M26.3750004,27.1500003 C25.6988003,27.1500003 25.1500003,26.6012003 25.1500003,25.9250003 L25.1500003,19.8000002 C25.1500003,15.4475751 22.2492003,13.0318751 19.0250002,12.546775 L19.0250002,11.225 C19.0250002,10.5488 18.4762002,10 17.8000002,10 C17.1238002,10 16.5750002,10.5488 16.5750002,11.225 L16.5750002,12.546775 C13.3508001,13.0318751 10.45,15.4475751 10.45,19.8000002 L10.45,25.9250003 C10.45,26.6012003 9.90120004,27.1500003 9.22500002,27.1500003 C8.54880001,27.1500003 8,27.6988003 8,28.3750004 C8,29.0512004 8.54880001,29.6000004 9.22500002,29.6000004 L14.1250001,29.6000004 L14.1250001,30.8250004 C14.1250001,32.8548254 15.7701752,34.5000005 17.8000002,34.5000005 C19.8298252,34.5000005 21.4750003,32.8548254 21.4750003,30.8250004 L21.4750003,29.6000004 L26.3750004,29.6000004 C27.0512004,29.6000004 27.6000004,29.0512004 27.6000004,28.3750004 C27.6000004,27.6988003 27.0512004,27.1500003 26.3750004,27.1500003 L26.3750004,27.1500003 Z" id="notification_bell-[#1397]" fill="#FFFFFF" transform="translate(17.800000, 22.250000) rotate(-20.000000) translate(-17.800000, -22.250000) "></path>
                        <rect id="Rectangle-3" fill="#888F9B" x="18" y="10" width="20" height="13" rx="6.5"></rect>
                        <path d="M31,15.5 C31,13.0188125 28.9811875,11 26.5,11 C24.0188125,11 22,13.0188125 22,15.5 C22,17.9811875 24.0188125,20 26.5,20 C28.9811875,20 31,17.9811875 31,15.5 M32,15.5 C32,18.53765 29.53765,21 26.5,21 C23.46235,21 21,18.53765 21,15.5 C21,12.46235 23.46235,10 26.5,10 C29.53765,10 32,12.46235 32,15.5 M30,15.5 C30,15.776 29.744,16 29.4285714,16 L27.1428571,16 C26.5114286,16 26,15.5525 26,15 L26,12.5 C26,12.224 26.256,12 26.5714286,12 C26.8868571,12 27.1428571,12.224 27.1428571,12.5 L27.1428571,14.5 C27.1428571,14.775 27.4,15 27.7142857,15 L29.4285714,15 C29.744,15 30,15.224 30,15.5" id="clock-[#1315]" stroke="#FFFFFF" fill="#FFFFFF"></path>
                    </g>
                </g>
            </g>
        </g>
    </g>
</svg>
