<?xml version="1.0" encoding="UTF-8"?>
<svg width="40px" height="40px" viewBox="0 0 40 40" version="1.1" xmlns="http://www.w3.org/2000/svg" xmlns:xlink="http://www.w3.org/1999/xlink">
    <!-- Generator: Sketch 48.2 (47327) - http://www.bohemiancoding.com/sketch -->
    <title>icn_machine_state_manual</title>
    <desc>Created with Sketch.</desc>
    <defs></defs>
    <g id="A.1.0-Dashboard---Three-Cards" stroke="none" stroke-width="1" fill="none" fill-rule="evenodd" transform="translate(-248.000000, -25.000000)">
        <g id="//-Top-bar">
            <g id="All_ok_bar" transform="translate(248.000000, 10.000000)">
                <g id="Icon/40x40/machine_state/manual" transform="translate(0.000000, 15.000000)">
                    <g id="icn_hand">
                        <circle id="Oval-2" fill="#4CD964" cx="20" cy="20" r="20"></circle>
                        <path d="M20.000067,8 C19.1859116,8 18.4772323,8.49251333 18.1667336,9.19791667 C17.9096933,9.07759333 17.6337736,9 17.3334003,9 C16.2369316,9 15.3334003,9.90353333 15.3334003,11 L15.3334003,11.78125 C15.123182,11.7058867 14.9014413,11.6666667 14.6667336,11.6666667 C13.5850253,11.6666667 12.7010216,12.5485433 12.6771503,13.625 L12.000067,25.3333333 C11.9870416,25.5715104 12.1020717,25.798544 12.3018264,25.9289128 C12.5015812,26.0592816 12.7557131,26.0731794 12.9684931,25.9653711 C13.1812732,25.8575628 13.320375,25.6444271 13.3334003,25.40625 L14.000067,13.6979167 C14.000067,13.2858033 14.2858693,13 14.6667336,13 C15.0134973,13 15.2759226,13.23805 15.3229836,13.5625 C15.3246368,13.5764911 15.328109,15.8334355 15.3334003,20.3333333 C15.3300001,20.5737573 15.4563172,20.7973876 15.6639822,20.9185918 C15.8716472,21.0397961 16.1284867,21.0397961 16.3361517,20.9185918 C16.5438168,20.7973876 16.6701338,20.5737573 16.6667336,20.3333333 L16.6667336,11 C16.6667336,10.6191333 16.9525356,10.3333333 17.3334003,10.3333333 C17.678511,10.3333333 17.9406696,10.57393 17.9896503,10.8958333 C17.9913035,10.9098244 17.9947757,13.9445467 18.000067,20 C17.9966668,20.2404239 18.1229838,20.4640542 18.3306489,20.5852585 C18.5383139,20.7064627 18.7951534,20.7064627 19.0028184,20.5852585 C19.2104834,20.4640542 19.3368005,20.2404239 19.3334003,20 L19.3334003,10 C19.3334003,9.61913667 19.6192023,9.33333333 20.000067,9.33333333 C20.3809316,9.33333333 20.6667336,9.61913667 20.6667336,10 L20.6667336,19.6666667 C20.6633334,19.9070906 20.7896505,20.1307209 20.9973155,20.2519251 C21.2049806,20.3731294 21.46182,20.3731294 21.6694851,20.2519251 C21.8771501,20.1307209 22.0034671,19.9070906 22.000067,19.6666667 L22.000067,10.9583333 C22.0400703,10.5830633 22.3141106,10.3333333 22.6667336,10.3333333 C23.0467316,10.3333333 23.3064776,10.6109033 23.3334003,11.0416667 L24.000067,21.7083333 C24.0172452,21.9395991 24.1533578,22.1453263 24.3594873,22.2515786 C24.5656169,22.357831 24.8121494,22.3493436 25.0104836,22.2291667 C26.7383983,21.1924333 28.2933886,20 29.6667336,20 C29.858737,20 30.000067,20.1413333 30.000067,20.3333333 C30.000067,20.4140667 29.9718436,20.47415 29.9271503,20.53125 C29.908867,20.5525833 28.329476,22.39475 26.6042336,24.3854167 C24.8690296,26.3876167 22.972172,28.5524167 22.5104836,29.03125 C21.5415896,30.03605 20.1850493,30.6666667 18.6667336,30.6666667 C15.7005356,30.6666667 13.3334003,28.2995333 13.3334003,25.3333333 C13.3368005,25.0929094 13.2104834,24.8692791 13.0028184,24.7480749 C12.7951534,24.6268706 12.5383139,24.6268706 12.3306489,24.7480749 C12.1229838,24.8692791 11.9966668,25.0929094 12.000067,25.3333333 C12.000067,29.0151333 14.9849316,32 18.6667336,32 C20.55134,32 22.257903,31.2141333 23.468817,29.9583333 C24.0464776,29.3592333 25.8772646,27.2547 27.6146503,25.25 C29.352036,23.2453 30.9584003,21.375 30.9584003,21.375 C31.200321,21.0717333 31.3334003,20.7172 31.3334003,20.3333333 C31.3334003,19.4207333 30.5792996,18.6666667 29.6667336,18.6666667 C27.990452,18.6666667 26.5950533,19.6206333 25.2604836,20.5 L24.6667336,10.9583333 C24.6015023,9.91464333 23.7640683,9 22.6667336,9 C22.3647313,9 22.0914816,9.08666667 21.8334003,9.20833333 C21.5247296,8.49873333 20.817271,8 20.000067,8 Z" id="Shape" stroke="#FFFFFF" stroke-width="0.5" fill="#FFFFFF" fill-rule="nonzero"></path>
                    </g>
                </g>
            </g>
        </g>
    </g>
</svg>