<?xml version="1.0" encoding="UTF-8"?>
<svg width="40px" height="40px" viewBox="0 0 40 40" version="1.1" xmlns="http://www.w3.org/2000/svg" xmlns:xlink="http://www.w3.org/1999/xlink">
    <!-- Generator: Sketch 48.2 (47327) - http://www.bohemiancoding.com/sketch -->
    <title>icn_back</title>
    <desc>Created with Sketch.</desc>
    <defs></defs>
    <g id="B-1.0-Espulsori" stroke="none" stroke-width="1" fill="#888F9B" fill-rule="evenodd" transform="translate(-20.000000, -703.000000)">
        <g id="//-Bottom-bar" transform="translate(0.000000, 678.000000)">
            <g id="Icon/40x40/Back" transform="translate(20.000000, 25.000000)">
                <g id="icn_back">
                    <circle id="Oval" stroke="#122038" stroke-width="2" cx="20" cy="20" r="19"></circle>
                    <path d="M28.75,18.75 L15.50781,18.75 L20.66406,13.59375 C20.92448,13.359375 21.05469,13.06641 21.05469,12.714845 C21.05469,12.36328 20.92448,12.070315 20.66406,11.83594 C20.429685,11.57552 20.13672,11.44531 19.785155,11.44531 C19.43359,11.44531 19.140625,11.57552 18.90625,11.83594 L11.83594,18.90625 C11.679685,19.0625 11.57552,19.23828 11.52344,19.433595 C11.471355,19.628905 11.471355,19.817705 11.52344,20 C11.471355,20.182295 11.471355,20.371095 11.52344,20.566405 C11.57552,20.76172 11.679685,20.9375 11.83594,21.09375 L18.90625,28.16406 C19.140625,28.42448 19.43359,28.55469 19.785155,28.55469 C20.13672,28.55469 20.429685,28.42448 20.66406,28.16406 C20.92448,27.929685 21.05469,27.63672 21.05469,27.285155 C21.05469,26.93359 20.92448,26.640625 20.66406,26.40625 L15.50781,21.25 L28.75,21.25 C29.088545,21.25 29.38151,21.126305 29.628905,20.878905 C29.876305,20.63151 30,20.338545 30,20 C30,19.661455 29.876305,19.36849 29.628905,19.121095 C29.38151,18.873695 29.088545,18.75 28.75,18.75 Z" id="Page-1" fill="#122038"></path>
                </g>
            </g>
        </g>
    </g>
</svg>
