<svg id="Layer_1" data-name="Layer 1" xmlns="http://www.w3.org/2000/svg" viewBox="0 0 20 20"><defs><style>.cls-1{fill:#545f71;}</style></defs><title>icn_calibrazione_00</title><path class="cls-1" d="M17.21,16.5l1.15-1.15a.5.5,0,0,0-.71-.71L16.5,15.79l-2.64-2.64a5,5,0,0,0-7-7L4.21,3.5,5.35,2.35a.5.5,0,0,0-.71-.71L3.5,2.79,1.85,1.15a.5.5,0,0,0-.71.71L2.79,3.5,1.65,4.65a.5.5,0,0,0,.71.71L3.5,4.21,6.14,6.85a5,5,0,0,0,7,7l2.64,2.64-1.15,1.15a.5.5,0,0,0,.71.71l1.15-1.15,1.65,1.65a.5.5,0,0,0,.71-.71Zm-5.35-4.65a.5.5,0,0,1-.71,0l-3-3a.5.5,0,0,1,.71-.71l3,3A.5.5,0,0,1,11.85,11.85Zm7.63,1.3h0a.5.5,0,0,1-.95-.32A9,9,0,0,0,7.16,1.47.5.5,0,0,1,6.84.52,10,10,0,0,1,19.48,13.16Zm-6,5.69a.5.5,0,0,1-.32.63A10,10,0,0,1,.52,6.84h0a.5.5,0,0,1,.95.32A9,9,0,0,0,12.84,18.53.5.5,0,0,1,13.47,18.85Z"/></svg>