<?xml version="1.0" encoding="UTF-8" standalone="no"?>
<svg
   xmlns:dc="http://purl.org/dc/elements/1.1/"
   xmlns:cc="http://creativecommons.org/ns#"
   xmlns:rdf="http://www.w3.org/1999/02/22-rdf-syntax-ns#"
   xmlns:svg="http://www.w3.org/2000/svg"
   xmlns="http://www.w3.org/2000/svg"
   version="1.1"
   viewBox="0 0 20 20"
   data-name="Layer 1"
   id="Layer_1">
  <metadata
     id="metadata13">
    <rdf:RDF>
      <cc:Work
         rdf:about="">
        <dc:format>image/svg+xml</dc:format>
        <dc:type
           rdf:resource="http://purl.org/dc/dcmitype/StillImage" />
        <dc:title>icn_en_conveyor_belt_off</dc:title>
      </cc:Work>
    </rdf:RDF>
  </metadata>
  <defs
     id="defs4">
    <style
       id="style2">.cls-1{fill:#545f71;}</style>
  </defs>
  <title
     id="title6">icn_en_conveyor_belt_off</title>
  <path
     d="m 10.175781,0.00390625 c -0.06837,-7.5113e-4 -0.136739,-9.995e-5 -0.2050779,0.00195313 0.067112,-4.5864e-4 0.1342299,9.7205e-4 0.2011719,0 0.0014,-4.947e-4 0.0025,-0.00145773 0.0039,-0.00195313 z M 4,12 c -5.333331,0 -5.333331,8 0,8 h 12 c 5.333331,0 5.333331,-8 0,-8 z m 0,2 h 12 c 2.666666,0 2.666666,4 0,4 H 4 C 1.3333345,18 1.3333345,14 4,14 Z m -1,1 v 2 h 2 v -2 z m 6,0 v 2 h 2 v -2 z m 6,0 v 2 h 2 v -2 z"
     style="fill:#888f9b;fill-opacity:1"
     id="path8" />
</svg>
