<?xml version="1.0" encoding="UTF-8"?>
<svg width="44px" height="44px" viewBox="0 0 44 44" version="1.1" xmlns="http://www.w3.org/2000/svg" xmlns:xlink="http://www.w3.org/1999/xlink">
    <!-- Generator: Sketch 48.2 (47327) - http://www.bohemiancoding.com/sketch -->
    <title>icn_action_Save</title>
    <desc>Created with Sketch.</desc>
    <defs>
        <linearGradient x1="50%" y1="0%" x2="50%" y2="100%" id="linearGradient-1">
            <stop stop-color="#FFFFFF" offset="0%"></stop>
            <stop stop-color="#FFFFFF" offset="100%"></stop>
        </linearGradient>
    </defs>
    <g id="B-1.0-Espulsori" stroke="none" stroke-width="1" fill="none" fill-rule="evenodd" transform="translate(-850.000000, -692.000000)">
        <g id="---actions" transform="translate(441.000000, 692.000000)">
            <g id="Stacked-Group">
                <g id="Action/component/bottom_bar" transform="translate(378.000000, 0.000000)">
                    <g id="Icon/44x44/Action/Clock" transform="translate(31.000000, 0.000000)">
                        <circle id="Oval" fill="url(#linearGradient-1)" cx="22" cy="22" r="22"></circle>
                        <path d="M19.21875,16 C19.21875,15.448 19.68915,15 20.26875,15 C20.84835,15 21.31875,15.448 21.31875,16 C21.31875,16.552 20.84835,17 20.26875,17 C19.68915,17 19.21875,16.552 19.21875,16 Z M30.9,29 C30.9,29.552 30.4296,30 29.85,30 L28.8,30 L28.8,26 C28.8,24.895 27.86025,24 26.7,24 L18.3,24 C17.13975,24 16.2,24.895 16.2,26 L16.2,30 L15.15,30 C14.5704,30 14.1,29.552 14.1,29 L14.1,19.044 C14.1,18.911 14.15565,18.784 14.2533,18.691 L16.2,16.837 L16.2,18 C16.2,19.105 17.13975,20 18.3,20 L26.7,20 C27.86025,20 28.8,19.105 28.8,18 L28.8,14 L29.85,14 C30.4296,14 30.9,14.448 30.9,15 L30.9,29 Z M26.7,30 L18.3,30 L18.3,27 C18.3,26.448 18.7704,26 19.35,26 L25.65,26 C26.2296,26 26.7,26.448 26.7,27 L26.7,30 Z M18.3,14.837 L19.17885,14 L26.7,14 L26.7,17 C26.7,17.552 26.2296,18 25.65,18 L19.35,18 C18.7704,18 18.3,17.552 18.3,17 L18.3,14.837 Z M30.9,12 L18.7347,12 C18.45645,12 18.18975,12.105 17.99235,12.293 L12.30765,17.707 C12.11025,17.895 12,18.149 12,18.414 L12,30 C12,31.105 12.93975,32 14.1,32 L30.9,32 C32.06025,32 33,31.105 33,30 L33,14 C33,12.895 32.06025,12 30.9,12 Z" id="save_item-[#1411]" fill="#545F71" fill-rule="nonzero"></path>
                    </g>
                </g>
            </g>
        </g>
    </g>
</svg>