<?xml version="1.0" encoding="UTF-8"?>
<svg width="20px" height="20px" viewBox="0 0 20 20" version="1.1" xmlns="http://www.w3.org/2000/svg" xmlns:xlink="http://www.w3.org/1999/xlink">
    <!-- Generator: Sketch 50.2 (55047) - http://www.bohemiancoding.com/sketch -->
    <title>Icon/20x20/icn_logout</title>
    <desc>Created with Sketch.</desc>
    <defs>
        <path d="M14.6489529,1.14595796 C13.9019466,0.752974682 12.9999381,1.2789523 12.9999381,2.12391635 C12.9999381,2.5528981 13.2559402,2.92588223 13.6349444,3.12687368 C16.4159688,4.60281088 18.2009848,7.7166784 17.6909796,11.1745313 C17.1869753,14.6023854 14.3339503,17.3432688 10.8899193,17.7282524 C6.20487789,18.2512302 2.22284334,14.5813863 2.22284334,10.0005812 C2.22284334,7.00470869 3.9248577,4.40081948 6.41287965,3.10187474 C6.76388356,2.91888253 6.99988555,2.57289725 6.99988555,2.1769141 L6.99988555,2.08491801 C6.99988555,1.25695324 6.11787716,0.745974979 5.38287096,1.12995864 C1.85883932,2.96688049 -0.433180971,6.84171563 0.068824217,11.1915306 C0.594828655,15.7423369 4.30086088,19.43018 8.85390215,19.9361585 C14.889955,20.60713 20,15.9003302 20,10.0005812 C20,6.15574481 17.8309807,2.81888678 14.6489529,1.14595796 M9,9 L9,1 C9,0.447 9.448,0 10,0 C10.553,0 11,0.447 11,1 L11,9 C11,9.552 10.553,10 10,10 C9.448,10 9,9.552 9,9" id="path-1" fill="#888F9B"></path>
    </defs>
    <g id="Icon/20x20/icn_logout" stroke="none" stroke-width="1" fill="none" fill-rule="evenodd">
        <mask id="mask-2" fill="white">
            <use xlink:href="#path-1"></use>
        </mask>
        <use id="logout" fill="#FF2D2D" fill-rule="nonzero" xlink:href="#path-1"></use>
        <g id="Color/Fill/Mid_Dark" mask="url(#mask-2)" fill="none">
            <rect id="Rectangle" x="0" y="0" width="0" height="0"></rect>
        </g>
    </g>
</svg>
