<?xml version="1.0" encoding="UTF-8"?>
<svg width="20px" height="20px" viewBox="0 0 20 20" version="1.1" xmlns="http://www.w3.org/2000/svg" xmlns:xlink="http://www.w3.org/1999/xlink">
    <!-- Generator: Sketch 50.2 (55047) - http://www.bohemiancoding.com/sketch -->
    <title>Icon/20x20/icn_bin</title>
    <desc>Created with Sketch.</desc>
    <defs>
        <path d="M17.71,2.29 C17.5212812,2.10281349 17.265803,1.99846324 17,2 L12,2 C12,0.8954305 11.1045695,6.76353751e-17 10,0 C8.8954305,-6.76353751e-17 8,0.8954305 8,2 L3,2 C2.44771525,2 2,2.44771525 2,3 L2,6 C2,6.55228475 2.44771525,7 3,7 L3,19 C3,19.5522847 3.44771525,20 4,20 L16,20 C16.5522847,20 17,19.5522847 17,19 L17,7 C17.5522847,7 18,6.55228475 18,6 L18,3 C18.0015368,2.73419702 17.8971865,2.47871883 17.71,2.29 Z M4,4 L16,4 L16,5 L4,5 L4,4 Z M15,18 L5,18 L5,7 L15,7 L15,18 Z M7,16 L7,9 C7,8.44771525 7.44771525,8 8,8 C8.55228475,8 9,8.44771525 9,9 L9,16 C9,16.5522847 8.55228475,17 8,17 C7.44771525,17 7,16.5522847 7,16 Z M11,16 L11,9 C11,8.44771525 11.4477153,8 12,8 C12.5522847,8 13,8.44771525 13,9 L13,16 C13,16.5522847 12.5522847,17 12,17 C11.4477153,17 11,16.5522847 11,16 Z" id="path-1" fill="#888F9B"></path>
    </defs>
    <g id="Icon/20x20/icn_bin" stroke="none" stroke-width="1" fill="none" fill-rule="evenodd">
        <mask id="mask-2" fill="white">
            <use xlink:href="#path-1"></use>
        </mask>
        <g id="icn_bin" fill-rule="nonzero"></g>
        <g id="Color/Fill/Mid_Dark" mask="url(#mask-2)" fill="none">
            <rect id="Rectangle" x="0" y="0" width="0" height="0"></rect>
        </g>
    </g>
</svg>
