<?xml version="1.0" encoding="UTF-8"?>
<svg width="20px" height="20px" viewBox="0 0 20 20" version="1.1" xmlns="http://www.w3.org/2000/svg" xmlns:xlink="http://www.w3.org/1999/xlink">
    <!-- Generator: Sketch 50.2 (55047) - http://www.bohemiancoding.com/sketch -->
    <title>Icon/20x20/icn_livello_plastica</title>
    <desc>Created with Sketch.</desc>
    <defs>
        <path d="M2,9 L10,9 L10,19 L2,19 L2,9 Z M18.71,12.29 C19.0977236,12.6800375 19.0977236,13.3099625 18.71,13.7 L16.71,15.7 C16.3199625,16.0877236 15.6900375,16.0877236 15.3,15.7 L13.3,13.7 C12.9602232,13.3032397 12.9830677,12.7118058 13.3524368,12.3424368 C13.7218058,11.9730677 14.3132397,11.9502232 14.71,12.29 L16,13.59 L17.29,12.3 C17.4764301,12.1093589 17.7312772,12.001069 17.9979168,11.9991913 C18.2645564,11.9973135 18.5209035,12.1020035 18.71,12.29 Z M14.71,7.7 L16,6.41 L17.29,7.7 C17.6867603,8.0397768 18.2781942,8.01693227 18.6475632,7.64756322 C19.0169323,7.27819417 19.0397768,6.68676028 18.7,6.29 L16.7,4.29 C16.3099625,3.90227641 15.6800375,3.90227641 15.29,4.29 L13.29,6.29 C12.9502232,6.68676028 12.9730677,7.27819417 13.3424368,7.64756322 C13.7118058,8.01693227 14.3032397,8.0397768 14.7,7.7 L14.71,7.7 Z M9.88,5.7 C10.5642493,6.89349272 10.9485847,8.23523515 11,9.61 L11,18 C11,19.1045695 10.1045695,20 9,20 L3,20 C1.8954305,20 1,19.1045695 1,18 L1,9.61 C1.05286142,8.23097599 1.44069808,6.8855603 2.13,5.69 C2.6998235,4.66085004 3.32404044,3.66277055 4,2.7 L4,0 L8,0 L8,2.7 C8.67595956,3.66277055 9.3001765,4.66085004 9.87,5.69 L9.88,5.7 Z M9,9.61 C8.94662891,8.55200014 8.63782772,7.52266287 8.1,6.61 C7.50853232,5.55819447 6.86438036,4.53689655 6.17,3.55 L6,3.3 L5.83,3.55 C5.13533249,4.5401487 4.4911767,5.5647903 3.9,6.62 C3.36217228,7.53266287 3.05337109,8.56200014 3,9.62 L3,18 L9,18 L9,9.61 Z" id="path-1" fill="#888F9B"></path>
    </defs>
    <g id="Icon/20x20/icn_livello_plastica" stroke="none" stroke-width="1" fill="none" fill-rule="evenodd">
        <mask id="mask-2" fill="white">
            <use xlink:href="#path-1"></use>
        </mask>
        <g id="icn_livello_plastica" fill-rule="nonzero"></g>
        <g id="Color/Fill/Mid_Dark" mask="url(#mask-2)" fill="none">
            <rect id="Rectangle" x="0" y="0" width="0" height="0"></rect>
        </g>
    </g>
</svg>
