<?xml version="1.0" encoding="UTF-8"?>
<svg width="20px" height="20px" viewBox="0 0 20 20" version="1.1" xmlns="http://www.w3.org/2000/svg" xmlns:xlink="http://www.w3.org/1999/xlink">
    <!-- Generator: Sketch 50.2 (55047) - http://www.bohemiancoding.com/sketch -->
    <title>Icon/20x20/icn_user</title>
    <desc>Created with Sketch.</desc>
    <defs>
        <path d="M17.08,12.3047619 C16.0853187,11.3630924 14.8924696,10.6327766 13.58,10.1619048 C15.3271687,8.73519698 15.9568709,6.42331922 15.1582196,4.36765663 C14.3595683,2.31199404 12.301463,0.947279741 10,0.947279741 C7.69853703,0.947279741 5.64043165,2.31199404 4.84178037,4.36765663 C4.04312909,6.42331922 4.6728313,8.73519698 6.42,10.1619048 C2.55540638,11.5730763 0.00298699519,15.1057974 1.77635684e-15,19.047619 C1.84399221e-15,19.5736045 0.44771525,20 1,20 L19,20 C19.5522847,20 20,19.5736045 20,19.047619 C20.0047399,16.5200216 18.954279,14.0942997 17.08,12.3047619 Z M6.5,6.19047619 C6.5,4.34952702 8.06700338,2.85714286 10,2.85714286 C11.9329966,2.85714286 13.5,4.34952702 13.5,6.19047619 C13.5,8.03142536 11.9329966,9.52380952 10,9.52380952 C8.06700338,9.52380952 6.5,8.03142536 6.5,6.19047619 Z M2.07,18.0952381 C2.59932864,14.3094842 5.98986982,11.4818885 10,11.4818885 C14.0101302,11.4818885 17.4006714,14.3094842 17.93,18.0952381 L2.07,18.0952381 Z" id="path-1" fill="#888F9B"></path>
    </defs>
    <g id="Icon/20x20/icn_user" stroke="none" stroke-width="1" fill="none" fill-rule="evenodd">
        <mask id="mask-2" fill="white">
            <use xlink:href="#path-1"></use>
        </mask>
        <g id="icn_user" fill-rule="nonzero"></g>
        <g id="Color/Fill/Mid_Dark" mask="url(#mask-2)" fill="none">
            <rect id="Rectangle" x="0" y="0" width="0" height="0"></rect>
        </g>
    </g>
</svg>
