<?xml version="1.0" encoding="UTF-8"?>
<svg width="20px" height="20px" viewBox="0 0 20 20" version="1.1" xmlns="http://www.w3.org/2000/svg" xmlns:xlink="http://www.w3.org/1999/xlink">
    <!-- Generator: Sketch 50.2 (55047) - http://www.bohemiancoding.com/sketch -->
    <title>Icon/20x20/icn_modify_user</title>
    <desc>Created with Sketch.</desc>
    <defs>
        <path d="M10,11.4285714 C12.668938,11.4331637 14.9576025,9.61536535 15.4321561,7.11401843 C15.9067097,4.6126715 14.4306936,2.14704336 11.9288248,1.26183838 C9.42695598,0.37663341 6.61865197,1.32639408 5.26330194,3.51609982 C3.90795191,5.70580555 4.3952895,8.50580206 6.42,10.1619048 C2.55540638,11.5730763 0.00298699519,15.1057974 1.77635684e-15,19.047619 C1.84399221e-15,19.5736045 0.44771525,20 1,20 L8,20 C8.55228475,20 9,19.5736045 9,19.047619 C9,18.5216336 8.55228475,18.0952381 8,18.0952381 L2.07,18.0952381 C2.57360572,14.288324 5.97114267,11.4320508 10,11.4285714 Z M6.5,6.19047619 C6.5,4.34952702 8.06700338,2.85714286 10,2.85714286 C11.9329966,2.85714286 13.5,4.34952702 13.5,6.19047619 C13.5,8.03142536 11.9329966,9.52380952 10,9.52380952 C8.06700338,9.52380952 6.5,8.03142536 6.5,6.19047619 Z M16,13.3333333 L18,15.2380952 L13,20 L11,20 L11,18.0952381 L16,13.3333333 Z M20,13.3333333 L19,14.2857143 L17,12.3809524 L18,11.4285714 L20,13.3333333 Z" id="path-1" fill="#888F9B"></path>
    </defs>
    <g id="Icon/20x20/icn_modify_user" stroke="none" stroke-width="1" fill="none" fill-rule="evenodd">
        <mask id="mask-2" fill="white">
            <use xlink:href="#path-1"></use>
        </mask>
        <g id="icn_modify_user" fill-rule="nonzero"></g>
        <g id="Color/Fill/Mid_Dark" mask="url(#mask-2)" fill="none">
            <rect id="Rectangle" x="0" y="0" width="0" height="0"></rect>
        </g>
    </g>
</svg>
