<?xml version="1.0" encoding="UTF-8"?>
<svg width="20px" height="20px" viewBox="0 0 20 20" version="1.1" xmlns="http://www.w3.org/2000/svg" xmlns:xlink="http://www.w3.org/1999/xlink">
    <!-- Generator: Sketch 50.2 (55047) - http://www.bohemiancoding.com/sketch -->
    <title>Icon/20x20/icn_parametri_controllo</title>
    <desc>Created with Sketch.</desc>
    <defs>
        <path d="M19,15 L8.82,15 C8.3854666,13.8206551 7.26185071,13.0371957 6.005,13.0371957 C4.74814929,13.0371957 3.6245334,13.8206551 3.19,15 L1,15 C0.44771525,15 6.76353751e-17,15.4477153 0,16 C-6.76353751e-17,16.5522847 0.44771525,17 1,17 L3.18,17 C3.6145334,18.1793449 4.73814929,18.9628043 5.995,18.9628043 C7.25185071,18.9628043 8.3754666,18.1793449 8.81,17 L19,17 C19.5522847,17 20,16.5522847 20,16 C20,15.4477153 19.5522847,15 19,15 Z M6,17 C5.44771525,17 5,16.5522847 5,16 C5,15.4477153 5.44771525,15 6,15 C6.55228475,15 7,15.4477153 7,16 C7,16.5522847 6.55228475,17 6,17 Z M1,5 L3.18,5 C3.6106251,6.18645344 4.73781549,6.97647667 6,6.97647667 C7.26218451,6.97647667 8.3893749,6.18645344 8.82,5 L19,5 C19.5522847,5 20,4.55228475 20,4 C20,3.44771525 19.5522847,3 19,3 L8.82,3 C8.3893749,1.81354656 7.26218451,1.02352333 6,1.02352333 C4.73781549,1.02352333 3.6106251,1.81354656 3.18,3 L1,3 C0.44771525,3 6.76353751e-17,3.44771525 0,4 C-6.76353751e-17,4.55228475 0.44771525,5 1,5 Z M6,3 C6.55228475,3 7,3.44771525 7,4 C7,4.55228475 6.55228475,5 6,5 C5.44771525,5 5,4.55228475 5,4 C5,3.44771525 5.44771525,3 6,3 Z M19,9 L16.82,9 C16.3854666,7.82065509 15.2618507,7.03719574 14.005,7.03719574 C12.7481493,7.03719574 11.6245334,7.82065509 11.19,9 L1,9 C0.44771525,9 6.76353751e-17,9.44771525 0,10 C-6.76353751e-17,10.5522847 0.44771525,11 1,11 L11.18,11 C11.6145334,12.1793449 12.7381493,12.9628043 13.995,12.9628043 C15.2518507,12.9628043 16.3754666,12.1793449 16.81,11 L19,11 C19.5522847,11 20,10.5522847 20,10 C20,9.44771525 19.5522847,9 19,9 Z M14,11 C13.4477153,11 13,10.5522847 13,10 C13,9.44771525 13.4477153,9 14,9 C14.5522847,9 15,9.44771525 15,10 C15,10.5522847 14.5522847,11 14,11 Z" id="path-1" fill="#888F9B" ></path>
    </defs>
    <g id="Icon/20x20/icn_parametri_controllo" stroke="none" stroke-width="1" fill="none" fill-rule="evenodd">
        <mask id="mask-2" fill="white">
            <use xlink:href="#path-1"></use>
        </mask>
        <g id="icn_parametri_controllo" fill-rule="nonzero"></g>
        <g id="Color/Fill/Mid_Dark" mask="url(#mask-2)" fill="none">
            <rect id="Rectangle" x="0" y="0" width="0" height="0"></rect>
        </g>
    </g>
</svg>
