<?xml version="1.0" encoding="UTF-8"?>
<svg width="20px" height="20px" viewBox="0 0 20 20" version="1.1" xmlns="http://www.w3.org/2000/svg" xmlns:xlink="http://www.w3.org/1999/xlink">
    <!-- Generator: Sketch 50.2 (55047) - http://www.bohemiancoding.com/sketch -->
    <title>Icon/20x20/icn_cap_drop</title>
    <desc>Created with Sketch.</desc>
    <defs>
        <path d="M13,12.3809524 L7,12.3809524 C4.790861,12.3809524 3,14.0865343 3,16.1904762 L3,19.047619 C3,19.5736045 3.44771525,20 4,20 L16,20 C16.5522847,20 17,19.5736045 17,19.047619 L17,16.1904762 C17,14.0865343 15.209139,12.3809524 13,12.3809524 Z M5,16.1904762 C5,15.1385052 5.8954305,14.2857143 7,14.2857143 L13,14.2857143 C14.1045695,14.2857143 15,15.1385052 15,16.1904762 L15,18.0952381 L5,18.0952381 L5,16.1904762 Z M5.29,8.84761905 L8.59,5.71428571 L5.29,2.58095238 C5.03634143,2.33937279 4.93727648,1.98726287 5.03012196,1.65725901 C5.12296744,1.32725516 5.39361791,1.0694928 5.74012196,0.981068536 C6.08662601,0.89264427 6.45634143,0.986991839 6.71,1.22857143 L10,4.37142857 L13.29,1.22857143 C13.5343899,0.95678461 13.9181184,0.838398148 14.283419,0.922085586 C14.6487195,1.00577302 14.9339383,1.27740995 15.0218101,1.62531526 C15.1096819,1.97322058 14.9853762,2.3386763 14.7,2.57142857 L11.41,5.71428571 L14.7,8.84761905 C14.9853762,9.08037132 15.1096819,9.44582704 15.0218101,9.79373235 C14.9339383,10.1416377 14.6487195,10.4132746 14.283419,10.496962 C13.9181184,10.5806495 13.5343899,10.462263 13.29,10.1904762 L10,7.05714286 L6.71,10.2 C6.31787783,10.5734497 5.68212218,10.5734497 5.29000001,10.2 C4.89787784,9.82655031 4.89787784,9.22106874 5.29,8.84761905 Z" id="path-1" fill="#122038"></path>
    </defs>
    <g id="Icon/20x20/icn_cap_drop" stroke="none" stroke-width="1" fill="none" fill-rule="evenodd">
        <mask id="mask-2" fill="white">
            <use xlink:href="#path-1"></use>
        </mask>
        <g id="icn_cap_drop" fill-rule="nonzero"></g>
        <g id="Color/Fill/Mid_Dark" mask="url(#mask-2)" fill="none">
            <rect id="Rectangle" x="0" y="0" width="0" height="0"></rect>
        </g>
    </g>
</svg>
