<svg id="Layer_1" data-name="Layer 1" xmlns="http://www.w3.org/2000/svg" viewBox="0 0 20 20"><defs><style>.cls-1{fill:#545f71;}</style></defs><title>icn_all_measure</title><path class="cls-1" d="M17.71,4.29A1,1,0,0,0,17,4V2.5a.5.5,0,0,0-.5-.5H16V.5a.5.5,0,0,0-.5-.5H4.5A.5.5,0,0,0,4,.5V2H3.5a.5.5,0,0,0-.5.5V4A1,1,0,0,0,2,5V19a1,1,0,0,0,1,1H17a1,1,0,0,0,1-1V5A1,1,0,0,0,17.71,4.29ZM5,1H15V2H5ZM4,3H16V4H4ZM4,6H16V18H4ZM14,8.5a.5.5,0,0,1-.5.5h-7a.5.5,0,0,1,0-1h7A.5.5,0,0,1,14,8.5Zm-8,3a.5.5,0,0,1,.5-.5h4a.5.5,0,0,1,0,1h-4A.5.5,0,0,1,6,11.5Zm7,3a.5.5,0,0,1-.5.5h-6a.5.5,0,0,1,0-1h6A.5.5,0,0,1,13,14.5Z"/></svg>