<svg id="Layer_1" data-name="Layer 1" xmlns="http://www.w3.org/2000/svg" viewBox="0 0 20 20"><defs><style>.cls-1{fill:#545f71;}</style></defs><title>icn_perdite</title><path class="cls-1" d="M16,8.63A36.22,36.22,0,0,0,10.76.35a1,1,0,0,0-1.52,0A40.14,40.14,0,0,0,6.15,4.59,27.27,27.27,0,0,0,4,8.63,11.72,11.72,0,0,0,3,13a7,7,0,0,0,14,0A11.72,11.72,0,0,0,16,8.63Zm-2.45,7.9A5,5,0,0,1,5,13a9.82,9.82,0,0,1,.86-3.6A29,29,0,0,1,8.92,4.06C9.32,3.48,9.7,3,10,2.59a38.88,38.88,0,0,1,2.43,3.5,23.72,23.72,0,0,1,1.81,3.54A9.47,9.47,0,0,1,15,13,5,5,0,0,1,13.54,16.54Z"/></svg>