<?xml version="1.0" standalone="no"?>
<!DOCTYPE svg PUBLIC "-//W3C//DTD SVG 20010904//EN"
 "http://www.w3.org/TR/2001/REC-SVG-20010904/DTD/svg10.dtd">
<svg version="1.0" xmlns="http://www.w3.org/2000/svg"
 width="2732.000000pt" height="1436.000000pt" viewBox="0 0 2732.000000 1436.000000"
 preserveAspectRatio="xMidYMid meet">

<g transform="translate(0.000000,1436.000000) scale(0.100000,-0.100000)"
fill="#000000" stroke="none">
<path d="M0 7180 l0 -7180 13660 0 13660 0 0 7180 0 7180 -13660 0 -13660 0 0
-7180z m10675 -520 c269 -465 567 -980 662 -1144 131 -225 171 -301 161 -307
-17 -11 -2649 -11 -2666 -1 -10 7 566 1015 1290 2256 33 56 42 66 53 55 6 -8
232 -394 500 -859z m5171 649 c184 -28 347 -112 484 -249 79 -78 104 -111 142
-185 25 -49 54 -124 64 -165 45 -186 5 -397 -105 -559 -258 -376 -814 -489
-1237 -250 -114 64 -256 207 -311 314 -60 116 -83 208 -83 331 0 114 23 220
66 306 170 340 562 523 980 457z m-3323 -129 c70 -139 489 -994 569 -1159 43
-91 76 -171 74 -178 -4 -11 -45 -13 -193 -11 l-188 3 -74 153 -75 152 -320 -2
-321 -3 -60 -143 c-34 -79 -67 -147 -75 -153 -8 -5 -91 -9 -183 -9 -138 0
-169 3 -173 15 -5 12 603 1369 629 1403 7 9 52 12 181 10 l171 -3 38 -75z
m1975 42 c115 -60 171 -135 198 -265 34 -163 -28 -318 -164 -404 -30 -19 -50
-38 -46 -42 5 -4 26 -20 48 -35 82 -61 116 -156 116 -327 0 -46 9 -132 20
-192 12 -59 18 -112 15 -117 -4 -6 -79 -10 -184 -10 -139 0 -181 3 -190 14
-15 18 -30 141 -31 251 0 106 -11 153 -47 195 -49 59 -57 60 -352 60 l-271 0
-2 -257 -3 -258 -175 0 -175 0 -3 713 -2 713 592 -3 593 -3 63 -33z m2542
-527 l0 -565 390 0 390 0 0 -150 0 -150 -562 2 -563 3 -3 713 -2 712 175 0
175 0 0 -565z m-4470 -1014 c11 -21 14 -310 4 -348 -5 -18 -14 -23 -40 -23
l-34 0 0 188 c0 104 3 192 7 195 13 14 53 6 63 -12z m3210 -45 c0 -30 4 -35
30 -41 40 -9 42 -42 3 -47 -27 -3 -28 -5 -31 -73 -4 -93 2 -115 33 -115 20 0
25 -5 25 -25 0 -23 -3 -25 -47 -25 -75 0 -77 4 -83 127 l-5 108 -27 3 c-40 5
-38 38 2 46 27 5 30 10 30 41 0 33 2 35 35 35 33 0 35 -2 35 -34z m-3385 -50
c38 -16 70 -58 61 -81 -9 -25 -51 -17 -84 15 -25 23 -41 30 -72 30 -78 0 -120
-58 -99 -136 20 -69 127 -83 171 -23 16 22 30 29 55 29 43 0 43 -19 -1 -67
-31 -34 -39 -37 -100 -41 -86 -6 -129 3 -166 34 -78 66 -50 203 50 243 37 15
146 13 185 -3z m522 -7 c57 -27 77 -65 71 -136 -5 -58 -28 -92 -83 -121 -42
-23 -169 -22 -213 1 -99 53 -96 203 5 256 54 28 161 28 220 0z m392 -13 c17
-17 31 -36 31 -43 0 -21 -67 -16 -90 7 -31 31 -140 27 -140 -5 0 -20 13 -25
108 -46 108 -24 132 -39 132 -82 0 -45 -32 -73 -99 -88 -117 -25 -250 26 -227
87 8 20 52 17 68 -4 19 -27 52 -42 92 -42 50 0 86 16 86 39 0 22 -8 25 -100
41 -117 21 -159 56 -132 114 18 40 68 57 159 54 75 -3 84 -5 112 -32z m689 7
c-2 -21 -9 -29 -28 -31 -41 -5 -79 -23 -84 -41 -3 -9 -6 -50 -7 -91 -1 -41 -4
-81 -7 -87 -2 -7 -19 -13 -38 -13 l-34 0 0 140 0 140 34 0 c19 0 36 -5 38 -11
3 -8 13 -7 33 4 17 9 45 16 63 17 31 0 33 -2 30 -27z m292 11 c53 -21 82 -63
78 -111 l-3 -38 -137 -3 c-149 -3 -160 -8 -114 -51 46 -43 134 -36 175 13 8 9
26 16 42 16 53 0 28 -55 -41 -90 -13 -7 -56 -13 -95 -14 -120 -1 -185 49 -185
144 0 59 27 101 81 128 54 27 141 29 199 6z m563 7 c30 -12 67 -49 67 -68 0
-21 -64 -16 -85 7 -29 32 -145 27 -145 -6 0 -19 28 -30 124 -49 91 -18 116
-35 116 -80 0 -41 -32 -70 -93 -86 -114 -28 -257 25 -233 87 8 22 63 18 71 -5
13 -42 136 -55 173 -17 24 24 6 35 -89 56 -46 10 -96 24 -112 31 -53 24 -44
93 17 123 35 17 151 21 189 7z m722 -5 c31 -13 55 -41 55 -65 0 -19 -66 -12
-85 9 -23 25 -115 29 -135 5 -20 -24 -2 -34 101 -55 75 -15 99 -24 117 -46 27
-31 23 -58 -18 -96 -47 -44 -184 -50 -252 -10 -28 16 -52 57 -43 73 12 19 59
9 80 -17 35 -44 158 -42 172 3 6 16 -23 28 -120 48 -98 21 -136 49 -122 91 17
49 68 74 147 74 38 0 84 -6 103 -14z m572 -5 c46 -21 67 -49 78 -100 5 -24 3
-36 -6 -42 -8 -5 -74 -9 -146 -9 -77 0 -133 -4 -133 -9 0 -6 11 -23 24 -38 21
-24 31 -28 79 -28 47 0 60 4 84 28 29 27 76 36 88 18 3 -6 -8 -26 -25 -45 -51
-58 -169 -71 -258 -29 -100 47 -95 196 8 250 55 29 147 31 207 4z m206 1 c8
-7 20 -6 37 3 34 19 114 18 152 -1 29 -15 34 -15 65 0 75 36 194 9 208 -46 3
-13 5 -68 3 -123 l-3 -100 -37 -3 -38 -3 0 111 c0 107 -1 111 -24 121 -31 14
-88 4 -109 -19 -12 -13 -17 -43 -19 -112 l-3 -95 -35 0 -35 0 -5 108 c-6 121
-11 131 -73 123 -66 -8 -76 -25 -79 -135 l-3 -96 -37 -3 -38 -3 0 139 c0 76 2
141 5 144 8 8 54 1 68 -10z m794 -8 c15 -12 29 -31 31 -43 3 -18 -1 -21 -31
-21 -21 0 -41 7 -52 20 -23 25 -115 29 -135 5 -20 -24 -5 -32 100 -54 74 -16
100 -26 118 -46 30 -35 28 -51 -11 -90 -38 -38 -103 -52 -189 -40 -41 6 -60
15 -86 41 -39 39 -38 58 3 62 21 3 33 -3 50 -24 30 -37 117 -47 155 -16 35 29
20 40 -85 63 -49 10 -98 26 -111 34 -47 31 -39 80 19 116 45 28 182 24 224 -7z
m-3667 -94 c5 -99 6 -105 30 -117 41 -21 110 3 129 44 6 13 11 60 11 103 l0
80 35 0 35 0 0 -140 0 -140 -28 0 c-15 0 -33 5 -40 12 -9 9 -18 9 -37 0 -62
-28 -193 -7 -209 33 -3 9 -6 66 -6 126 l0 110 38 -3 37 -3 5 -105z m1590 15
c23 -53 47 -98 51 -101 5 -3 30 40 55 96 l47 100 38 0 c22 0 39 -5 39 -10 0
-24 -158 -307 -191 -342 -32 -33 -41 -38 -82 -38 -26 0 -48 5 -48 10 -5 30 -1
35 30 40 21 3 41 15 53 31 l20 26 -66 131 c-36 73 -66 136 -66 142 0 5 17 10
38 10 l38 0 44 -95z"/>
<path d="M10095 7203 c-14 -21 -25 -41 -25 -45 0 -5 43 -8 95 -8 52 0 95 3 95
8 0 4 -11 24 -25 45 -23 33 -30 37 -70 37 -40 0 -47 -4 -70 -37z"/>
<path d="M9988 7019 c-10 -17 -18 -35 -18 -40 0 -5 83 -9 195 -9 112 0 195 4
195 9 0 5 -8 23 -17 40 l-18 31 -160 0 -160 0 -17 -31z"/>
<path d="M9881 6834 c-12 -19 -21 -39 -21 -45 0 -12 597 -12 605 0 3 5 -4 26
-16 45 l-21 36 -263 0 -263 0 -21 -36z"/>
<path d="M9775 6650 c-8 -16 -15 -31 -15 -35 0 -3 182 -5 405 -5 223 0 405 2
405 5 0 4 -7 19 -15 35 l-16 30 -374 0 -374 0 -16 -30z"/>
<path d="M9671 6474 c-12 -19 -21 -39 -21 -45 0 -5 199 -9 515 -9 283 0 515 3
515 6 0 4 -10 24 -22 45 l-22 39 -472 0 -472 0 -21 -36z"/>
<path d="M9597 6324 c-2 -5 63 -127 147 -270 83 -144 210 -363 281 -487 72
-125 133 -227 136 -227 4 0 69 107 145 238 76 130 202 347 281 480 79 134 143
248 143 253 0 5 -197 9 -473 9 -261 0 -514 3 -564 6 -50 4 -93 3 -96 -2z"/>
<path d="M9502 6181 l-23 -40 233 -405 233 -405 52 -1 52 0 -97 168 c-53 92
-169 292 -257 445 -88 152 -163 277 -166 277 -3 0 -15 -18 -27 -39z"/>
<path d="M10696 6047 c-55 -94 -169 -291 -253 -436 -84 -146 -153 -269 -153
-274 0 -4 21 -7 47 -5 l48 3 232 403 233 403 -22 39 c-13 22 -25 40 -28 40 -3
0 -50 -78 -104 -173z"/>
<path d="M9395 5997 l-17 -33 84 -145 c46 -79 129 -222 183 -316 l100 -173 43
0 c23 0 42 2 42 5 0 12 -397 689 -406 692 -6 2 -19 -11 -29 -30z"/>
<path d="M10886 6008 c-30 -50 -386 -669 -386 -673 0 -3 19 -5 43 -5 l42 0
183 317 183 317 -18 33 c-21 39 -28 41 -47 11z"/>
<path d="M9290 5815 l-22 -35 129 -223 129 -222 48 -3 c43 -3 48 -1 42 14 -15
38 -288 504 -296 504 -5 0 -18 -16 -30 -35z"/>
<path d="M10922 5713 c-44 -76 -109 -190 -146 -253 -36 -63 -66 -118 -66 -123
0 -4 21 -7 47 -5 l47 3 127 220 127 219 -19 38 c-11 21 -23 38 -28 38 -5 0
-45 -62 -89 -137z"/>
<path d="M9185 5634 l-19 -36 23 -42 c13 -22 48 -83 78 -133 l54 -93 45 0 c24
0 44 2 44 5 0 11 -192 335 -199 335 -3 0 -15 -16 -26 -36z"/>
<path d="M11107 5663 c-64 -109 -187 -326 -187 -329 0 -3 21 -4 46 -2 l46 3
75 129 75 129 -18 38 c-16 38 -28 47 -37 32z"/>
<path d="M9080 5453 l-22 -37 21 -43 c20 -42 22 -43 71 -43 27 0 50 3 50 7 0
12 -83 153 -91 153 -4 0 -17 -17 -29 -37z"/>
<path d="M11167 5410 l-46 -80 53 0 c51 0 53 1 75 40 l22 39 -21 41 c-11 22
-24 40 -28 40 -4 0 -29 -36 -55 -80z"/>
<path d="M15563 7016 c-213 -52 -373 -253 -373 -470 0 -57 25 -149 58 -216 84
-169 305 -281 497 -251 238 36 415 240 415 476 0 126 -45 230 -141 328 -124
125 -290 173 -456 133z"/>
<path d="M12208 6633 c-56 -131 -81 -200 -74 -205 15 -10 328 -10 344 1 10 6
-10 55 -82 201 -53 106 -97 195 -100 197 -2 2 -42 -85 -88 -194z"/>
<path d="M13612 6818 l3 -163 268 -3 c289 -3 326 2 378 45 88 75 73 208 -31
261 -43 21 -53 22 -332 22 l-288 0 2 -162z"/>
<path d="M12744 5538 c-46 -22 -61 -95 -30 -143 22 -33 61 -48 111 -41 55 7
85 43 85 102 0 64 -32 94 -97 93 -26 0 -58 -5 -69 -11z"/>
<path d="M14135 5538 c-22 -12 -45 -37 -45 -50 0 -4 45 -8 100 -8 110 0 124
10 74 49 -29 23 -95 28 -129 9z"/>
<path d="M16000 5543 c-24 -9 -50 -35 -50 -50 0 -10 22 -13 95 -13 105 0 119
10 69 49 -26 20 -79 27 -114 14z"/>
</g>
</svg>
